<?xml version="1.0" encoding="iso-8859-1"?>
<!-- Generator: Adobe Illustrator 19.1.0, SVG Export Plug-In . SVG Version: 6.00 Build 0)  -->
<!DOCTYPE svg PUBLIC "-//W3C//DTD SVG 1.1//EN" "http://www.w3.org/Graphics/SVG/1.1/DTD/svg11.dtd">
<svg version="1.1" id="assets" xmlns="http://www.w3.org/2000/svg" xmlns:xlink="http://www.w3.org/1999/xlink" x="0px" y="0px"
	 viewBox="0 0 16 16" style="enable-background:new 0 0 16 16;" xml:space="preserve">
<path d="M11.506,9.892c0.451-0.738,0.712-1.605,0.712-2.533c0-2.683-2.175-4.859-4.859-4.859S2.5,4.675,2.5,7.359
	c0,2.683,2.175,4.859,4.859,4.859c0.928,0,1.795-0.26,2.533-0.712l2.994,2.994c0.657-0.402,1.212-0.957,1.614-1.614L11.506,9.892z
	 M7.375,11.125c-2.071,0-3.75-1.679-3.75-3.75c0-2.071,1.679-3.75,3.75-3.75s3.75,1.679,3.75,3.75
	C11.125,9.446,9.446,11.125,7.375,11.125z"/>
</svg>
